<svg xmlns="http://www.w3.org/2000/svg" viewBox="0 0 123.41 102.82"><defs><style>.cls-1{opacity:0.3;}</style></defs><title>CVV_1</title><g id="Layer_2" data-name="Layer 2"><g id="cvv_copy" data-name="cvv copy"><path d="M71.45,32.48l-1.36-2.07h.79a.24.24,0,0,1,.12,0,.2.2,0,0,1,.07.07l1,1.56,0-.08,0-.07.89-1.4a.19.19,0,0,1,.17-.11h.76l-1.37,2L74,34.67h-.79a.19.19,0,0,1-.13,0,.39.39,0,0,1-.08-.09L72,32.9l0,.07,0,.06L71,34.53l-.08.09a.17.17,0,0,1-.12,0H70Z"/><path d="M75.74,32.48l-1.36-2.07h.79a.24.24,0,0,1,.12,0,.2.2,0,0,1,.07.07l1,1.56,0-.08,0-.07.89-1.4a.19.19,0,0,1,.17-.11h.76l-1.37,2,1.41,2.22h-.79a.19.19,0,0,1-.13,0,.39.39,0,0,1-.08-.09l-1-1.63,0,.07,0,.06-.95,1.51-.08.09a.17.17,0,0,1-.12,0h-.74Z"/><path d="M80,32.48l-1.36-2.07h.79a.24.24,0,0,1,.12,0,.2.2,0,0,1,.07.07l1,1.56,0-.08,0-.07.89-1.4a.19.19,0,0,1,.17-.11h.76l-1.37,2,1.41,2.22h-.79a.19.19,0,0,1-.13,0,.39.39,0,0,1-.08-.09l-1-1.63,0,.07,0,.06-.95,1.51-.08.09a.17.17,0,0,1-.12,0h-.74Z"/><g class="cls-1"><path d="M8,39.89V31.08h53.3a1.91,1.91,0,0,0-.5-.67H7.31V40.56H61.67a3.07,3.07,0,0,1-.31-.67Z"/></g><g class="cls-1"><rect x="30.21" y="48.62" width="81.65" height="1"/></g><g class="cls-1"><rect x="45.78" y="55.33" width="20.3" height="1"/></g><g class="cls-1"><rect x="93.2" y="55.33" width="18.65" height="1"/></g><g class="cls-1"><rect x="61.71" y="66.17" width="50.15" height="1"/></g><path d="M109.91,0H13.5A13.52,13.52,0,0,0,0,13.5V65a13.52,13.52,0,0,0,13.5,13.5h96.41A13.52,13.52,0,0,0,123.41,65V13.5A13.52,13.52,0,0,0,109.91,0ZM13.5,3h96.41a10.48,10.48,0,0,1,8.34,4.15l-.2,0H6.22a6.38,6.38,0,0,0-1.12.1A10.48,10.48,0,0,1,13.5,3ZM84.78,41.75V28.15H63.56a13.76,13.76,0,0,1,1.25-2.34l-.07,0a14.8,14.8,0,0,1,23.07,0l-.07,0A13.78,13.78,0,0,1,65.26,41.75Zm-20.14-.9A13.68,13.68,0,0,1,63.22,29H83.93V40.86Zm45.28,34.69H13.5A10.51,10.51,0,0,1,3,65V26.6H59.87a17.76,17.76,0,0,0,25.75,22l0,.05,17.68,22c2.42,3,6.64-1.26,4.24-4.24L90.1,44.66A17.71,17.71,0,0,0,92.68,26.6h27.73V65A10.51,10.51,0,0,1,109.91,75.54Z"/><path d="M8.39,89.85A3.05,3.05,0,0,1,8.17,91a2.72,2.72,0,0,1-.61.92,2.79,2.79,0,0,1-1,.61,3.38,3.38,0,0,1-1.24.22H3.1V86.94H5.37a3.35,3.35,0,0,1,1.24.22,2.82,2.82,0,0,1,1,.61,2.7,2.7,0,0,1,.61.92A3,3,0,0,1,8.39,89.85ZM7,89.85a2.55,2.55,0,0,0-.11-.78,1.68,1.68,0,0,0-.32-.59,1.41,1.41,0,0,0-.51-.37A1.74,1.74,0,0,0,5.37,88h-.9v3.75h.9a1.74,1.74,0,0,0,.69-.13,1.41,1.41,0,0,0,.51-.37,1.68,1.68,0,0,0,.32-.59A2.57,2.57,0,0,0,7,89.85Z"/><path d="M11.26,87.49a.66.66,0,0,1-.06.28A.74.74,0,0,1,11,88a.8.8,0,0,1-.24.16.76.76,0,0,1-.29.06.7.7,0,0,1-.28-.06A.8.8,0,0,1,10,88a.72.72,0,0,1-.16-.23.69.69,0,0,1-.06-.28.71.71,0,0,1,.06-.28A.74.74,0,0,1,10,87a.76.76,0,0,1,.23-.16.72.72,0,0,1,.28-.06.78.78,0,0,1,.29.06A.76.76,0,0,1,11,87a.75.75,0,0,1,.16.23A.68.68,0,0,1,11.26,87.49Zm-.14,1.14v4.15H9.88V88.62Z"/><path d="M15.45,89.53a.31.31,0,0,1-.1.11.27.27,0,0,1-.14,0,.44.44,0,0,1-.18,0l-.19-.08-.23-.08a1,1,0,0,0-.29,0,.62.62,0,0,0-.36.09.29.29,0,0,0-.13.25.25.25,0,0,0,.08.19.75.75,0,0,0,.22.13l.31.11.35.12.35.15a1.3,1.3,0,0,1,.31.21,1,1,0,0,1,.22.31,1,1,0,0,1,.08.43,1.43,1.43,0,0,1-.11.57,1.2,1.2,0,0,1-.33.45,1.59,1.59,0,0,1-.55.29,2.47,2.47,0,0,1-.75.1,2.26,2.26,0,0,1-.42,0,2.87,2.87,0,0,1-.41-.11,2.23,2.23,0,0,1-.37-.16,1.56,1.56,0,0,1-.29-.2l.29-.46a.4.4,0,0,1,.12-.13.34.34,0,0,1,.19,0,.39.39,0,0,1,.19,0l.19.1.23.1a1,1,0,0,0,.34,0,.87.87,0,0,0,.24,0,.43.43,0,0,0,.16-.08.32.32,0,0,0,.12-.25.27.27,0,0,0-.08-.2.75.75,0,0,0-.22-.14L14,91.19l-.35-.11-.35-.15a1.19,1.19,0,0,1-.31-.23,1.07,1.07,0,0,1-.22-.34,1.35,1.35,0,0,1,0-1,1.16,1.16,0,0,1,.31-.42,1.5,1.5,0,0,1,.51-.29,2.21,2.21,0,0,1,.72-.11,2.29,2.29,0,0,1,.43,0,2.21,2.21,0,0,1,.39.11,1.93,1.93,0,0,1,.34.17,1.62,1.62,0,0,1,.27.21Z"/><path d="M20.23,89.61l-.11.11a.24.24,0,0,1-.15,0,.32.32,0,0,1-.17,0l-.17-.1-.22-.1a.93.93,0,0,0-.31,0,.86.86,0,0,0-.39.08.72.72,0,0,0-.27.24,1.08,1.08,0,0,0-.16.38,2.26,2.26,0,0,0-.05.51,1.55,1.55,0,0,0,.23.92.74.74,0,0,0,.63.32.89.89,0,0,0,.34-.05,1.05,1.05,0,0,0,.21-.12l.16-.12a.3.3,0,0,1,.19-.06.26.26,0,0,1,.22.11l.36.44a2,2,0,0,1-.4.36,2,2,0,0,1-.43.22,2.23,2.23,0,0,1-.45.11l-.44,0a1.87,1.87,0,0,1-.73-.14,1.77,1.77,0,0,1-.61-.42,2,2,0,0,1-.42-.67,2.53,2.53,0,0,1-.15-.91,2.57,2.57,0,0,1,.13-.84,1.91,1.91,0,0,1,.4-.68,1.85,1.85,0,0,1,.65-.45,2.27,2.27,0,0,1,.89-.16,2.18,2.18,0,0,1,.86.16,2.06,2.06,0,0,1,.66.46Z"/><path d="M23.77,88.56a2.4,2.4,0,0,1,.86.15,1.88,1.88,0,0,1,.67.42,1.91,1.91,0,0,1,.43.67,2.42,2.42,0,0,1,.15.89,2.46,2.46,0,0,1-.15.89,1.92,1.92,0,0,1-.43.68,1.89,1.89,0,0,1-.67.43,2.37,2.37,0,0,1-.86.15,2.39,2.39,0,0,1-.87-.15,1.93,1.93,0,0,1-.67-.43,1.9,1.9,0,0,1-.44-.68,2.46,2.46,0,0,1-.15-.89,2.42,2.42,0,0,1,.15-.89,1.89,1.89,0,0,1,.44-.67,1.92,1.92,0,0,1,.67-.42A2.42,2.42,0,0,1,23.77,88.56Zm0,3.36a.7.7,0,0,0,.63-.3,2.18,2.18,0,0,0,0-1.83.71.71,0,0,0-.63-.3.72.72,0,0,0-.64.3,2.17,2.17,0,0,0,0,1.83A.72.72,0,0,0,23.77,91.91Z"/><path d="M29.5,92.77H28.37l-1.61-4.15h1a.38.38,0,0,1,.22.06.31.31,0,0,1,.12.15l.58,1.86.13.44q.06.22.11.43,0-.22.11-.43l.14-.44.6-1.86a.32.32,0,0,1,.12-.15.35.35,0,0,1,.21-.06h1Z"/><path d="M34,88.56a2.13,2.13,0,0,1,.75.13,1.64,1.64,0,0,1,.59.37,1.71,1.71,0,0,1,.38.6,2.2,2.2,0,0,1,.14.8,1.79,1.79,0,0,1,0,.23.39.39,0,0,1,0,.14.17.17,0,0,1-.09.07l-.14,0H33.24a1.17,1.17,0,0,0,.32.75.94.94,0,0,0,.66.23,1.18,1.18,0,0,0,.37-.05l.28-.12.22-.12a.47.47,0,0,1,.21-.05.26.26,0,0,1,.22.11l.36.44a1.83,1.83,0,0,1-.41.36,2.13,2.13,0,0,1-.46.22,2.44,2.44,0,0,1-.47.11l-.45,0a2.33,2.33,0,0,1-.82-.14,1.88,1.88,0,0,1-.67-.42,2,2,0,0,1-.45-.7,2.61,2.61,0,0,1-.17-1,2.19,2.19,0,0,1,.14-.79,1.91,1.91,0,0,1,1.05-1.1A2.12,2.12,0,0,1,34,88.56Zm0,.86a.75.75,0,0,0-.56.2,1.06,1.06,0,0,0-.26.58H34.8a1.09,1.09,0,0,0,0-.29.69.69,0,0,0-.12-.25.63.63,0,0,0-.23-.18A.77.77,0,0,0,34.07,89.41Z"/><path d="M37.42,92.77V88.62h.74l.15,0,.1,0a.21.21,0,0,1,.06.09.83.83,0,0,1,0,.14l.07.39a2,2,0,0,1,.51-.56,1,1,0,0,1,.62-.2.72.72,0,0,1,.46.14l-.16.91a.18.18,0,0,1-.06.12.22.22,0,0,1-.13,0l-.16,0-.23,0a.85.85,0,0,0-.77.52v2.54Z"/><path d="M40.76,92.07a.58.58,0,0,1,0-.24.56.56,0,0,1,.14-.19.68.68,0,0,1,.21-.13.75.75,0,0,1,.27,0,.72.72,0,0,1,.31.06.63.63,0,0,1,.22.17.7.7,0,0,1,.13.24,1,1,0,0,1,0,.29,1.55,1.55,0,0,1-.06.43,2.16,2.16,0,0,1-.19.45,2.72,2.72,0,0,1-.31.45,2.58,2.58,0,0,1-.43.4l-.22-.19-.07-.08a.18.18,0,0,1,0-.09.17.17,0,0,1,0-.09l.07-.08L41,93.3l.13-.15a1.38,1.38,0,0,0,.12-.18.89.89,0,0,0,.08-.21.69.69,0,0,1-.25-.07.6.6,0,0,1-.19-.15.69.69,0,0,1-.12-.21A.74.74,0,0,1,40.76,92.07Z"/><path d="M49.13,90.42l.14.34.14-.34.16-.32,1.5-2.95a.53.53,0,0,1,.08-.12l.09-.06.12,0h1.19v5.82H51.35V89.42c0-.16,0-.34,0-.53l-1.54,3a.51.51,0,0,1-.19.21.54.54,0,0,1-.28.07h-.18a.54.54,0,0,1-.28-.07.51.51,0,0,1-.19-.21l-1.55-3c0,.09,0,.19,0,.28s0,.18,0,.25v3.35H46V86.95h1.19l.12,0,.09.06a.47.47,0,0,1,.08.12l1.5,3Z"/><path d="M57.17,92.77a.58.58,0,0,1-.27,0,.37.37,0,0,1-.15-.2l-.09-.23-.3.23a1.85,1.85,0,0,1-.3.17,1.45,1.45,0,0,1-.33.1,2,2,0,0,1-.39,0,1.7,1.7,0,0,1-.52-.07,1.07,1.07,0,0,1-.39-.22,1,1,0,0,1-.25-.36,1.3,1.3,0,0,1-.09-.5,1,1,0,0,1,.11-.45,1.12,1.12,0,0,1,.39-.42,2.46,2.46,0,0,1,.74-.32,4.55,4.55,0,0,1,1.18-.13v-.18a.77.77,0,0,0-.15-.53.55.55,0,0,0-.43-.16,1.13,1.13,0,0,0-.36,0l-.25.11-.21.11a.58.58,0,0,1-.25,0,.38.38,0,0,1-.22-.06.46.46,0,0,1-.14-.15l-.22-.39a2.52,2.52,0,0,1,.83-.49,2.93,2.93,0,0,1,1-.16,1.79,1.79,0,0,1,.68.12,1.44,1.44,0,0,1,.83.86,1.85,1.85,0,0,1,.11.66v2.59ZM55.75,92a1,1,0,0,0,.42-.08,1.29,1.29,0,0,0,.36-.27v-.57a3.19,3.19,0,0,0-.61,0,1.48,1.48,0,0,0-.38.12.47.47,0,0,0-.19.17.4.4,0,0,0-.05.2.35.35,0,0,0,.12.3A.56.56,0,0,0,55.75,92Z"/><path d="M62,89.53a.31.31,0,0,1-.1.11.27.27,0,0,1-.14,0,.44.44,0,0,1-.18,0l-.19-.08-.23-.08a1,1,0,0,0-.29,0,.62.62,0,0,0-.36.09.29.29,0,0,0-.13.25.25.25,0,0,0,.08.19.75.75,0,0,0,.22.13l.31.11.35.12.35.15a1.3,1.3,0,0,1,.31.21,1,1,0,0,1,.22.31,1,1,0,0,1,.08.43,1.43,1.43,0,0,1-.11.57,1.2,1.2,0,0,1-.33.45,1.59,1.59,0,0,1-.55.29,2.47,2.47,0,0,1-.75.1,2.26,2.26,0,0,1-.42,0,2.87,2.87,0,0,1-.41-.11,2.23,2.23,0,0,1-.37-.16,1.56,1.56,0,0,1-.29-.2l.29-.46a.4.4,0,0,1,.12-.13.34.34,0,0,1,.19,0,.39.39,0,0,1,.19,0l.19.1.23.1a1,1,0,0,0,.34,0,.87.87,0,0,0,.24,0,.43.43,0,0,0,.16-.08.32.32,0,0,0,.12-.25.27.27,0,0,0-.08-.2.75.75,0,0,0-.22-.14l-.31-.11-.35-.11-.35-.15a1.19,1.19,0,0,1-.31-.23,1.07,1.07,0,0,1-.22-.34,1.35,1.35,0,0,1,0-1,1.16,1.16,0,0,1,.31-.42,1.5,1.5,0,0,1,.51-.29,2.21,2.21,0,0,1,.72-.11,2.29,2.29,0,0,1,.43,0,2.21,2.21,0,0,1,.39.11,1.93,1.93,0,0,1,.34.17,1.62,1.62,0,0,1,.27.21Z"/><path d="M65.19,92.83a1.46,1.46,0,0,1-.52-.09,1,1,0,0,1-.61-.63,1.49,1.49,0,0,1-.08-.5V89.48h-.35a.22.22,0,0,1-.23-.24v-.48l.66-.13.24-1a.25.25,0,0,1,.27-.19h.65v1.21h1v.85h-1v2.06a.39.39,0,0,0,.07.24.23.23,0,0,0,.2.09h.11l.08,0,.06,0h.07a.15.15,0,0,1,.09,0l.07.08.38.59a1.71,1.71,0,0,1-.54.27A2.14,2.14,0,0,1,65.19,92.83Z"/><path d="M69.51,88.56a2.13,2.13,0,0,1,.75.13,1.64,1.64,0,0,1,.59.37,1.71,1.71,0,0,1,.38.6,2.2,2.2,0,0,1,.14.8,1.79,1.79,0,0,1,0,.23.39.39,0,0,1,0,.14.17.17,0,0,1-.09.07l-.14,0H68.71a1.17,1.17,0,0,0,.32.75.94.94,0,0,0,.66.23,1.18,1.18,0,0,0,.37-.05l.28-.12.22-.12a.47.47,0,0,1,.21-.05.26.26,0,0,1,.22.11l.36.44a1.83,1.83,0,0,1-.41.36,2.13,2.13,0,0,1-.46.22,2.44,2.44,0,0,1-.47.11l-.45,0a2.33,2.33,0,0,1-.82-.14,1.88,1.88,0,0,1-.67-.42,2,2,0,0,1-.45-.7,2.61,2.61,0,0,1-.17-1,2.19,2.19,0,0,1,.14-.79,1.91,1.91,0,0,1,1.05-1.1A2.12,2.12,0,0,1,69.51,88.56Zm0,.86a.75.75,0,0,0-.56.2,1.06,1.06,0,0,0-.26.58h1.55a1.09,1.09,0,0,0,0-.29.69.69,0,0,0-.12-.25.63.63,0,0,0-.23-.18A.77.77,0,0,0,69.54,89.41Z"/><path d="M72.89,92.77V88.62h.74l.15,0,.1,0a.21.21,0,0,1,.06.09.83.83,0,0,1,0,.14l.07.39a2,2,0,0,1,.51-.56,1,1,0,0,1,.62-.2.72.72,0,0,1,.46.14l-.16.91a.18.18,0,0,1-.06.12.22.22,0,0,1-.13,0l-.16,0-.23,0a.85.85,0,0,0-.77.52v2.54Z"/><path d="M80.91,91.26l.1,0,.09.06.54.56a2.22,2.22,0,0,1-.88.69,3.09,3.09,0,0,1-1.25.23,3,3,0,0,1-1.19-.23,2.57,2.57,0,0,1-.89-.62,2.75,2.75,0,0,1-.56-.94,3.48,3.48,0,0,1-.2-1.19,3.12,3.12,0,0,1,.22-1.2,2.79,2.79,0,0,1,.63-.94,2.82,2.82,0,0,1,1-.62,3.35,3.35,0,0,1,1.24-.22,3.15,3.15,0,0,1,.62.06,3,3,0,0,1,.54.16,2.59,2.59,0,0,1,.46.24,2.29,2.29,0,0,1,.38.31l-.46.61-.1.1a.27.27,0,0,1-.17,0,.3.3,0,0,1-.14,0l-.14-.08-.16-.1-.2-.1L80.07,88a1.91,1.91,0,0,0-.37,0,1.7,1.7,0,0,0-.67.13,1.48,1.48,0,0,0-.52.37,1.71,1.71,0,0,0-.34.59,2.28,2.28,0,0,0-.12.77,2.38,2.38,0,0,0,.12.8,1.73,1.73,0,0,0,.33.59,1.4,1.4,0,0,0,.49.36,1.47,1.47,0,0,0,.6.12l.34,0a1.41,1.41,0,0,0,.28-.06,1.32,1.32,0,0,0,.25-.11,1.66,1.66,0,0,0,.24-.17l.1-.07Z"/><path d="M85.91,92.77a.58.58,0,0,1-.27,0,.37.37,0,0,1-.15-.2l-.09-.23-.3.23a1.85,1.85,0,0,1-.3.17,1.45,1.45,0,0,1-.33.1,2,2,0,0,1-.39,0,1.7,1.7,0,0,1-.52-.07,1.07,1.07,0,0,1-.39-.22,1,1,0,0,1-.25-.36,1.3,1.3,0,0,1-.09-.5,1,1,0,0,1,.11-.45,1.12,1.12,0,0,1,.39-.42,2.46,2.46,0,0,1,.74-.32,4.55,4.55,0,0,1,1.18-.13v-.18a.77.77,0,0,0-.15-.53.55.55,0,0,0-.43-.16,1.13,1.13,0,0,0-.36,0l-.25.11-.21.11a.58.58,0,0,1-.25,0,.38.38,0,0,1-.22-.06.46.46,0,0,1-.14-.15L83,89.2a2.52,2.52,0,0,1,.83-.49,2.93,2.93,0,0,1,1-.16,1.79,1.79,0,0,1,.68.12,1.44,1.44,0,0,1,.83.86,1.85,1.85,0,0,1,.11.66v2.59ZM84.49,92a1,1,0,0,0,.42-.08,1.29,1.29,0,0,0,.36-.27v-.57a3.19,3.19,0,0,0-.61,0,1.48,1.48,0,0,0-.38.12.47.47,0,0,0-.19.17.4.4,0,0,0-.05.2.35.35,0,0,0,.12.3A.56.56,0,0,0,84.49,92Z"/><path d="M88.16,92.77V88.62h.74l.15,0,.1,0a.21.21,0,0,1,.06.09.83.83,0,0,1,0,.14l.07.39a2,2,0,0,1,.51-.56,1,1,0,0,1,.62-.2.72.72,0,0,1,.46.14l-.16.91a.18.18,0,0,1-.06.12.22.22,0,0,1-.13,0l-.16,0-.23,0a.85.85,0,0,0-.77.52v2.54Z"/><path d="M95.18,92.77a.34.34,0,0,1-.19-.05.28.28,0,0,1-.11-.16l-.1-.32a2.53,2.53,0,0,1-.26.24,1.64,1.64,0,0,1-.29.19,1.53,1.53,0,0,1-.34.12,1.75,1.75,0,0,1-.39,0,1.28,1.28,0,0,1-.6-.14,1.38,1.38,0,0,1-.48-.42,2.07,2.07,0,0,1-.31-.67,3.23,3.23,0,0,1-.11-.9,2.78,2.78,0,0,1,.13-.86,2.1,2.1,0,0,1,.36-.69,1.67,1.67,0,0,1,.56-.45,1.6,1.6,0,0,1,.72-.16,1.38,1.38,0,0,1,.54.09,1.56,1.56,0,0,1,.4.25v-2.1h1.24v6Zm-1.26-.89.25,0,.2-.07a.89.89,0,0,0,.17-.12l.16-.17V89.73a.82.82,0,0,0-.31-.22,1,1,0,0,0-.34-.06.73.73,0,0,0-.32.07.64.64,0,0,0-.25.22,1.17,1.17,0,0,0-.17.39,2.43,2.43,0,0,0-.06.58,2.67,2.67,0,0,0,0,.55,1.11,1.11,0,0,0,.13.36.52.52,0,0,0,.21.2A.59.59,0,0,0,93.92,91.88Z"/><path d="M97.5,92.07a.58.58,0,0,1,0-.24.56.56,0,0,1,.14-.19.68.68,0,0,1,.21-.13.75.75,0,0,1,.27,0,.72.72,0,0,1,.31.06.63.63,0,0,1,.22.17.7.7,0,0,1,.13.24,1,1,0,0,1,0,.29,1.55,1.55,0,0,1-.06.43,2.16,2.16,0,0,1-.19.45,2.72,2.72,0,0,1-.31.45,2.58,2.58,0,0,1-.43.4l-.22-.19-.07-.08a.18.18,0,0,1,0-.09.17.17,0,0,1,0-.09l.07-.08.11-.12.13-.15A1.38,1.38,0,0,0,98,93a.89.89,0,0,0,.08-.21.69.69,0,0,1-.25-.07.6.6,0,0,1-.19-.15.69.69,0,0,1-.12-.21A.74.74,0,0,1,97.5,92.07Z"/><path d="M102.26,86.94h1.09a.48.48,0,0,1,.29.08.44.44,0,0,1,.16.21l1.13,3.12.15.44q.08.24.15.5c0-.18.08-.34.13-.5l.15-.44,1.12-3.12a.44.44,0,0,1,.16-.2.45.45,0,0,1,.28-.09h1.1l-2.34,5.83h-1.22Z"/><path d="M110.86,87.49a.66.66,0,0,1-.06.28.74.74,0,0,1-.16.23.8.8,0,0,1-.24.16.76.76,0,0,1-.29.06.7.7,0,0,1-.28-.06.8.8,0,0,1-.23-.16.72.72,0,0,1-.16-.23.69.69,0,0,1-.06-.28.71.71,0,0,1,.06-.28.74.74,0,0,1,.16-.23.76.76,0,0,1,.23-.16.72.72,0,0,1,.28-.06.78.78,0,0,1,.29.06.76.76,0,0,1,.24.16.75.75,0,0,1,.16.23A.68.68,0,0,1,110.86,87.49Zm-.14,1.14v4.15h-1.24V88.62Z"/><path d="M115,89.53a.31.31,0,0,1-.1.11.27.27,0,0,1-.14,0,.44.44,0,0,1-.18,0l-.19-.08-.23-.08a1,1,0,0,0-.29,0,.62.62,0,0,0-.36.09.29.29,0,0,0-.13.25.25.25,0,0,0,.08.19.75.75,0,0,0,.22.13l.31.11.35.12.35.15a1.3,1.3,0,0,1,.31.21,1,1,0,0,1,.22.31,1,1,0,0,1,.08.43,1.43,1.43,0,0,1-.11.57,1.2,1.2,0,0,1-.33.45,1.59,1.59,0,0,1-.55.29,2.47,2.47,0,0,1-.75.1,2.26,2.26,0,0,1-.42,0,2.87,2.87,0,0,1-.41-.11,2.23,2.23,0,0,1-.37-.16,1.56,1.56,0,0,1-.29-.2l.29-.46a.4.4,0,0,1,.12-.13.34.34,0,0,1,.19,0,.39.39,0,0,1,.19,0l.19.1.23.1a1,1,0,0,0,.34,0,.87.87,0,0,0,.24,0,.43.43,0,0,0,.16-.08.32.32,0,0,0,.12-.25.27.27,0,0,0-.08-.2.75.75,0,0,0-.22-.14l-.31-.11-.35-.11-.35-.15a1.19,1.19,0,0,1-.31-.23,1.07,1.07,0,0,1-.22-.34,1.35,1.35,0,0,1,0-1,1.16,1.16,0,0,1,.31-.42,1.5,1.5,0,0,1,.51-.29,2.21,2.21,0,0,1,.72-.11,2.29,2.29,0,0,1,.43,0,2.21,2.21,0,0,1,.39.11,1.93,1.93,0,0,1,.34.17,1.62,1.62,0,0,1,.27.21Z"/><path d="M119.7,92.77a.58.58,0,0,1-.27,0,.37.37,0,0,1-.15-.2l-.09-.23-.3.23a1.85,1.85,0,0,1-.3.17,1.45,1.45,0,0,1-.33.1,2,2,0,0,1-.39,0,1.7,1.7,0,0,1-.52-.07,1.07,1.07,0,0,1-.39-.22,1,1,0,0,1-.25-.36,1.3,1.3,0,0,1-.09-.5,1,1,0,0,1,.11-.45,1.12,1.12,0,0,1,.39-.42,2.46,2.46,0,0,1,.74-.32,4.55,4.55,0,0,1,1.18-.13v-.18a.77.77,0,0,0-.15-.53.55.55,0,0,0-.43-.16,1.13,1.13,0,0,0-.36,0l-.25.11-.21.11a.58.58,0,0,1-.25,0,.38.38,0,0,1-.22-.06.46.46,0,0,1-.14-.15l-.22-.39a2.52,2.52,0,0,1,.83-.49,2.93,2.93,0,0,1,1-.16,1.79,1.79,0,0,1,.68.12,1.44,1.44,0,0,1,.83.86,1.85,1.85,0,0,1,.11.66v2.59ZM118.27,92a1,1,0,0,0,.42-.08,1.29,1.29,0,0,0,.36-.27v-.57a3.19,3.19,0,0,0-.61,0,1.48,1.48,0,0,0-.38.12.47.47,0,0,0-.19.17.4.4,0,0,0-.05.2.35.35,0,0,0,.12.3A.56.56,0,0,0,118.27,92Z"/><path d="M4.64,98.42a1.58,1.58,0,0,1,.5.08,1.18,1.18,0,0,1,.4.22,1,1,0,0,1,.26.35,1.09,1.09,0,0,1,.09.45,1.17,1.17,0,0,1-.05.36.88.88,0,0,1-.15.28.89.89,0,0,1-.24.21,1.3,1.3,0,0,1-.31.14,1.16,1.16,0,0,1,.63.37,1,1,0,0,1,.21.65,1.23,1.23,0,0,1-.11.53,1.21,1.21,0,0,1-.31.4,1.38,1.38,0,0,1-.45.25,1.72,1.72,0,0,1-.56.09,1.76,1.76,0,0,1-.58-.09,1.21,1.21,0,0,1-.41-.24,1.26,1.26,0,0,1-.28-.36,2.63,2.63,0,0,1-.18-.45l.23-.1.13,0,.11,0a.17.17,0,0,1,.07.08v.05l.1.2a.82.82,0,0,0,.16.21.88.88,0,0,0,.25.16.94.94,0,0,0,.38.07,1,1,0,0,0,.39-.07.87.87,0,0,0,.28-.19.8.8,0,0,0,.17-.26.77.77,0,0,0,.06-.28,1.06,1.06,0,0,0,0-.32.55.55,0,0,0-.17-.25.87.87,0,0,0-.34-.17,2.12,2.12,0,0,0-.55-.06v-.39a1.66,1.66,0,0,0,.47-.06.91.91,0,0,0,.32-.16.58.58,0,0,0,.18-.24.81.81,0,0,0,.06-.31.82.82,0,0,0-.06-.32.62.62,0,0,0-.16-.23.67.67,0,0,0-.24-.13,1,1,0,0,0-.3,0,.9.9,0,0,0-.3,0,.8.8,0,0,0-.25.13.77.77,0,0,0-.18.2,1,1,0,0,0-.11.26.24.24,0,0,1-.07.13.19.19,0,0,1-.12,0H3.51l-.28,0a1.58,1.58,0,0,1,.16-.52,1.24,1.24,0,0,1,.3-.38,1.3,1.3,0,0,1,.42-.23A1.62,1.62,0,0,1,4.64,98.42Z"/><path d="M6.86,100.74H8.34v.45H6.86Z"/><path d="M13.19,100.62a2.41,2.41,0,0,1-.15.88,1.9,1.9,0,0,1-1.1,1.11,2.33,2.33,0,0,1-.86.15H9.46v-4.3h1.61a2.33,2.33,0,0,1,.86.15,1.92,1.92,0,0,1,.67.44,2,2,0,0,1,.43.68A2.41,2.41,0,0,1,13.19,100.62Zm-.6,0a2.15,2.15,0,0,0-.11-.71,1.49,1.49,0,0,0-.31-.53,1.3,1.3,0,0,0-.48-.33,1.65,1.65,0,0,0-.63-.11H10v3.36h1a1.65,1.65,0,0,0,.63-.11,1.31,1.31,0,0,0,.48-.33,1.48,1.48,0,0,0,.31-.53A2.15,2.15,0,0,0,12.59,100.62Z"/><path d="M15,102.77h-.58v-4.3H15Z"/><path d="M18.34,102.35l.32,0,.27,0,.24-.08.23-.11v-.95h-.67a.13.13,0,0,1-.09,0,.11.11,0,0,1,0-.08v-.33h1.32v1.65a2.4,2.4,0,0,1-.34.2,2.31,2.31,0,0,1-.37.15,2.7,2.7,0,0,1-.43.09,4,4,0,0,1-.49,0,2.23,2.23,0,0,1-.86-.16,2,2,0,0,1-.67-.45,2,2,0,0,1-.44-.69,2.43,2.43,0,0,1-.16-.89,2.49,2.49,0,0,1,.16-.9,1.93,1.93,0,0,1,1.13-1.14,2.48,2.48,0,0,1,.91-.16,2.83,2.83,0,0,1,.47,0,2.23,2.23,0,0,1,.41.11,1.91,1.91,0,0,1,.35.17,2.13,2.13,0,0,1,.3.23l-.17.26a.15.15,0,0,1-.13.08.21.21,0,0,1-.11,0l-.17-.1-.23-.12a1.83,1.83,0,0,0-.31-.09,2.09,2.09,0,0,0-.43,0,1.74,1.74,0,0,0-.66.12,1.39,1.39,0,0,0-.5.34,1.51,1.51,0,0,0-.32.53,2.33,2.33,0,0,0,0,1.43,1.54,1.54,0,0,0,.33.54,1.42,1.42,0,0,0,.5.34A1.68,1.68,0,0,0,18.34,102.35Z"/><path d="M21.82,102.77h-.58v-4.3h.58Z"/><path d="M26.2,98.47V99H24.81v3.81h-.58V99H22.83v-.49Z"/><path d="M31.6,101.88a.12.12,0,0,1,.09,0l.23.25a1.83,1.83,0,0,1-.64.48,2.18,2.18,0,0,1-.91.17,2.14,2.14,0,0,1-.84-.16,1.85,1.85,0,0,1-.64-.45,2,2,0,0,1-.41-.69,2.6,2.6,0,0,1-.15-.89,2.43,2.43,0,0,1,.16-.89,2,2,0,0,1,.44-.7,2,2,0,0,1,.68-.45,2.32,2.32,0,0,1,.88-.16A2,2,0,0,1,31.9,99l-.19.27,0,0-.08,0-.08,0-.1-.07-.14-.09L31.07,99,30.81,99a1.79,1.79,0,0,0-.34,0,1.63,1.63,0,0,0-.63.12,1.42,1.42,0,0,0-.49.34,1.54,1.54,0,0,0-.32.53,2,2,0,0,0-.12.71,2.07,2.07,0,0,0,.12.72,1.58,1.58,0,0,0,.32.53,1.33,1.33,0,0,0,.47.33,1.52,1.52,0,0,0,.59.11l.34,0a1.45,1.45,0,0,0,.28-.07,1.23,1.23,0,0,0,.24-.12l.23-.18A.15.15,0,0,1,31.6,101.88Z"/><path d="M36.51,102.77h-.45a.19.19,0,0,1-.13,0,.23.23,0,0,1-.07-.1l-.4-1H33.54l-.4,1a.24.24,0,0,1-.07.1.19.19,0,0,1-.13,0h-.45l1.72-4.3h.59Zm-2.82-1.6h1.6l-.67-1.75a3.26,3.26,0,0,1-.13-.4l-.06.23-.06.18Z"/><path d="M38,101v1.79h-.58v-4.3h1.21a2.65,2.65,0,0,1,.71.08,1.34,1.34,0,0,1,.49.24,1,1,0,0,1,.29.38,1.27,1.27,0,0,1,.09.49,1.24,1.24,0,0,1-.07.43,1.12,1.12,0,0,1-.21.36,1.26,1.26,0,0,1-.33.27,1.64,1.64,0,0,1-.45.17.62.62,0,0,1,.19.18l1.25,1.71h-.52a.25.25,0,0,1-.23-.12l-1.12-1.54a.32.32,0,0,0-.11-.1.4.4,0,0,0-.18,0Zm0-.42h.61a1.48,1.48,0,0,0,.45-.06.92.92,0,0,0,.32-.17.72.72,0,0,0,.2-.27.88.88,0,0,0,.07-.34.69.69,0,0,0-.25-.58,1.23,1.23,0,0,0-.75-.19H38Z"/><path d="M45.25,100.62a2.41,2.41,0,0,1-.15.88,1.9,1.9,0,0,1-1.1,1.11,2.33,2.33,0,0,1-.86.15H41.52v-4.3h1.61a2.33,2.33,0,0,1,.86.15,1.92,1.92,0,0,1,.67.44,2,2,0,0,1,.43.68A2.41,2.41,0,0,1,45.25,100.62Zm-.6,0a2.15,2.15,0,0,0-.11-.71,1.49,1.49,0,0,0-.31-.53,1.3,1.3,0,0,0-.48-.33,1.65,1.65,0,0,0-.63-.11h-1v3.36h1a1.65,1.65,0,0,0,.63-.11,1.31,1.31,0,0,0,.48-.33,1.48,1.48,0,0,0,.31-.53A2.15,2.15,0,0,0,44.65,100.62Z"/><path d="M47.3,98.47h.46a.19.19,0,0,1,.13,0,.24.24,0,0,1,.07.1l1.22,3q0,.1.08.22l.07.25.06-.25a1.94,1.94,0,0,1,.07-.22l1.21-3a.26.26,0,0,1,.07-.09.19.19,0,0,1,.13,0h.47l-1.75,4.3h-.52Z"/><path d="M54.83,98.47v.47H52.76v1.43h1.67v.46H52.76v1.47h2.06v.47H52.18v-4.3Z"/><path d="M56.6,101v1.79H56v-4.3h1.21a2.65,2.65,0,0,1,.71.08,1.34,1.34,0,0,1,.49.24,1,1,0,0,1,.29.38,1.27,1.27,0,0,1,.09.49,1.24,1.24,0,0,1-.07.43,1.12,1.12,0,0,1-.21.36,1.26,1.26,0,0,1-.33.27,1.64,1.64,0,0,1-.45.17.62.62,0,0,1,.19.18l1.25,1.71h-.52a.25.25,0,0,1-.23-.12l-1.12-1.54a.32.32,0,0,0-.11-.1.4.4,0,0,0-.18,0Zm0-.42h.61a1.48,1.48,0,0,0,.45-.06.92.92,0,0,0,.32-.17.72.72,0,0,0,.2-.27.88.88,0,0,0,.07-.34.69.69,0,0,0-.25-.58,1.23,1.23,0,0,0-.75-.19H56.6Z"/><path d="M60.82,102.77h-.58v-4.3h.58Z"/><path d="M64.92,98.47v.47H62.85v1.5h1.76v.47H62.85v1.85h-.58v-4.3Z"/><path d="M66.66,102.77h-.58v-4.3h.58Z"/><path d="M71.14,101.88a.12.12,0,0,1,.09,0l.23.25a1.83,1.83,0,0,1-.64.48,2.18,2.18,0,0,1-.91.17,2.14,2.14,0,0,1-.84-.16,1.85,1.85,0,0,1-.64-.45,2,2,0,0,1-.41-.69,2.6,2.6,0,0,1-.15-.89,2.43,2.43,0,0,1,.16-.89,2,2,0,0,1,.44-.7,2,2,0,0,1,.68-.45,2.32,2.32,0,0,1,.88-.16,2,2,0,0,1,1.43.55l-.19.27,0,0-.08,0-.08,0-.1-.07-.14-.09L70.61,99,70.35,99a1.79,1.79,0,0,0-.34,0,1.63,1.63,0,0,0-.63.12,1.42,1.42,0,0,0-.49.34,1.54,1.54,0,0,0-.32.53,2,2,0,0,0-.12.71,2.07,2.07,0,0,0,.12.72,1.58,1.58,0,0,0,.32.53,1.33,1.33,0,0,0,.47.33,1.52,1.52,0,0,0,.59.11l.34,0a1.45,1.45,0,0,0,.28-.07,1.23,1.23,0,0,0,.24-.12l.23-.18A.15.15,0,0,1,71.14,101.88Z"/><path d="M76.05,102.77H75.6a.19.19,0,0,1-.13,0,.23.23,0,0,1-.07-.1l-.4-1H73.08l-.4,1a.24.24,0,0,1-.07.1.19.19,0,0,1-.13,0H72l1.72-4.3h.59Zm-2.82-1.6h1.6l-.67-1.75A3.26,3.26,0,0,1,74,99l-.06.23-.06.18Z"/><path d="M79.43,98.47V99H78v3.81h-.58V99H76.06v-.49Z"/><path d="M81,102.77h-.58v-4.3H81Z"/><path d="M86.48,100.62a2.49,2.49,0,0,1-.15.89,2,2,0,0,1-.43.69,1.93,1.93,0,0,1-.67.45,2.41,2.41,0,0,1-1.73,0,1.92,1.92,0,0,1-.67-.45,2,2,0,0,1-.43-.69,2.66,2.66,0,0,1,0-1.77,2,2,0,0,1,.43-.7,1.93,1.93,0,0,1,.67-.45,2.39,2.39,0,0,1,1.73,0,1.94,1.94,0,0,1,.67.45,2,2,0,0,1,.43.7A2.49,2.49,0,0,1,86.48,100.62Zm-.6,0a2.18,2.18,0,0,0-.11-.71,1.5,1.5,0,0,0-.31-.53A1.33,1.33,0,0,0,85,99a1.75,1.75,0,0,0-1.26,0,1.35,1.35,0,0,0-.48.33,1.5,1.5,0,0,0-.31.53,2.4,2.4,0,0,0,0,1.42,1.5,1.5,0,0,0,.31.53,1.33,1.33,0,0,0,.48.33,1.77,1.77,0,0,0,1.26,0,1.31,1.31,0,0,0,.48-.33,1.49,1.49,0,0,0,.31-.53A2.16,2.16,0,0,0,85.88,100.62Z"/><path d="M88,98.49a.3.3,0,0,1,.09.08l2.49,3.24c0-.05,0-.1,0-.15s0-.1,0-.14v-3h.51v4.3h-.29l-.12,0a.29.29,0,0,1-.09-.08l-2.49-3.24s0,.1,0,.15,0,.09,0,.13v3.06h-.51v-4.3h.3Z"/><path d="M94.28,98.49a.3.3,0,0,1,.09.08l2.49,3.24c0-.05,0-.1,0-.15s0-.1,0-.14v-3h.51v4.3h-.29l-.12,0a.29.29,0,0,1-.09-.08l-2.49-3.24s0,.1,0,.15,0,.09,0,.13v3.06h-.51v-4.3h.3Z"/><path d="M100.37,102.31a1.21,1.21,0,0,0,.48-.09,1,1,0,0,0,.36-.25,1.1,1.1,0,0,0,.22-.39,1.51,1.51,0,0,0,.08-.5V98.47h.58v2.61a2,2,0,0,1-.12.69,1.6,1.6,0,0,1-.34.55,1.55,1.55,0,0,1-.54.36,2,2,0,0,1-1.43,0,1.56,1.56,0,0,1-.54-.36,1.59,1.59,0,0,1-.34-.55,2,2,0,0,1-.12-.69V98.47h.58v2.61a1.54,1.54,0,0,0,.08.5,1.1,1.1,0,0,0,.22.39,1,1,0,0,0,.36.25A1.19,1.19,0,0,0,100.37,102.31Z"/><path d="M105.57,101.37l.06.16.06-.16.08-.15,1.46-2.64a.17.17,0,0,1,.08-.08h.55v4.3h-.51V99.61s0-.09,0-.13,0-.1,0-.15L105.88,102a.23.23,0,0,1-.21.13h-.08a.23.23,0,0,1-.21-.13l-1.51-2.7c0,.05,0,.1,0,.15s0,.1,0,.14v3.16h-.51v-4.3h.55a.18.18,0,0,1,.08.08l1.48,2.65Z"/><path d="M109.2,102.77v-4.3h1.37a2.63,2.63,0,0,1,.68.08,1.32,1.32,0,0,1,.47.22.87.87,0,0,1,.27.35,1.18,1.18,0,0,1,.09.47.94.94,0,0,1,0,.31.91.91,0,0,1-.15.27,1.06,1.06,0,0,1-.25.23,1.39,1.39,0,0,1-.36.16,1.32,1.32,0,0,1,.71.34.89.89,0,0,1,.24.65,1.2,1.2,0,0,1-.1.5,1.06,1.06,0,0,1-.29.39,1.38,1.38,0,0,1-.47.25,2.13,2.13,0,0,1-.64.09Zm.58-2.37h.77a1.5,1.5,0,0,0,.43-.05.87.87,0,0,0,.3-.15.58.58,0,0,0,.18-.23.78.78,0,0,0,.06-.3.66.66,0,0,0-.23-.56,1.15,1.15,0,0,0-.71-.18h-.79Zm0,.41v1.5h.93a1.41,1.41,0,0,0,.43-.06.8.8,0,0,0,.29-.16.63.63,0,0,0,.17-.25.88.88,0,0,0,.05-.31.64.64,0,0,0-.24-.53,1.1,1.1,0,0,0-.71-.19Z"/><path d="M116,98.47v.47H114v1.43h1.67v.46H114v1.47H116v.47h-2.65v-4.3Z"/><path d="M117.81,101v1.79h-.58v-4.3h1.21a2.65,2.65,0,0,1,.71.08,1.34,1.34,0,0,1,.49.24,1,1,0,0,1,.29.38,1.27,1.27,0,0,1,.09.49,1.24,1.24,0,0,1-.07.43,1.12,1.12,0,0,1-.21.36,1.26,1.26,0,0,1-.33.27,1.64,1.64,0,0,1-.45.17.62.62,0,0,1,.19.18l1.25,1.71h-.52a.25.25,0,0,1-.23-.12l-1.12-1.54a.32.32,0,0,0-.11-.1.4.4,0,0,0-.18,0Zm0-.42h.61a1.48,1.48,0,0,0,.45-.06.92.92,0,0,0,.32-.17.72.72,0,0,0,.2-.27.88.88,0,0,0,.07-.34.69.69,0,0,0-.25-.58,1.23,1.23,0,0,0-.75-.19h-.64Z"/><rect x="2.77" y="95.53" width="117.75" height="1"/></g></g></svg>