<svg xmlns="http://www.w3.org/2000/svg" viewBox="0 0 126.46 86.25"><defs><style>.cls-1{fill:none;}</style></defs><title>profile_icon</title><g id="Layer_2" data-name="Layer 2"><g id="expanded"><path class="cls-1" d="M77.94,22.71A14.71,14.71,0,1,0,63.23,37.42,14.73,14.73,0,0,0,77.94,22.71Z"/><path class="cls-1" d="M63.23,51.44C34.09,51.44,18.85,69,12.84,78.25H113.68C107.76,69,92.67,51.44,63.23,51.44Z"/><path d="M124.1,80.69A63.07,63.07,0,0,0,110.53,62,65.46,65.46,0,0,0,71.45,43.88a22.71,22.71,0,1,0-16.44,0A65.47,65.47,0,0,0,15.92,62,63.07,63.07,0,0,0,2.35,80.69L0,86.25H126.46Zm-75.59-58A14.71,14.71,0,1,1,63.23,37.42,14.73,14.73,0,0,1,48.52,22.71ZM12.84,78.25c6-9.25,21.26-26.81,50.39-26.81,29.44,0,44.53,17.54,50.45,26.81Z"/></g></g></svg>